Coordinates
version=1
nRows=8
nColumns=33
inDegrees=yes

Units are S.I. units (second, meters, Newtons, ...)
Angles are in degrees.

endheader
time	ground_thorax_rot_x	ground_thorax_rot_y	ground_thorax_rot_z	ground_thorax_tx	ground_thorax_ty	ground_thorax_tz	clav_prot_r	clav_elev_r	scapula_abduction_r	scapula_elevation_r	scapula_upward_rot_r	scapula_winging_r	shoulder_elv_r	plane_of_elev_r	axial_rot_r	elbow_flexion_r	pro_sup_r	wrist_flex_r	wrist_dev_r	clav_prot_l	clav_elev_l	scapula_abduction_l	scapula_elevation_l	scapula_upward_rot_l	scapula_winging_l	shoulder_elv_l	plane_of_elev_l	axial_rot_l	elbow_flexion_l	pro_sup_l	wrist_flex_l	wrist_dev_l
      3.42000000	     40.34578982	      3.85339022	      9.42141161	   -181.73964743	    869.56433153	    -11.31361859	      0.58217261	     43.10238143	     45.00000000	     45.00000000	     18.88689483	    964.96268810	  -2814.84399107	     17.69780574	   -179.99999979	   1446.66618351	    -46.56125153	     21.76698944	      7.29714564	     12.75206189	    -45.00000000	    -38.31364577	     45.00000000	    -45.00000000	  -3143.69923997	  -3163.79392893	     17.38761342	    -59.61087849	     13.27608904	     50.14937554	      5.12455193	    -21.99203348
      3.43000000	     40.31036668	      3.91736583	      9.38779030	   -180.21921934	    872.01661745	    -11.27752216	      0.82983228	     43.05076333	     45.00000000	     45.00000000	     19.06755038	    965.06723429	  -2814.82934021	     17.92302283	   -179.99999979	   1446.62622084	    -45.99162769	     21.80065050	      7.26505530	     12.84734714	    -45.00000000	    -38.70713282	     45.00000000	    -45.00000000	  -3143.56377758	  -3163.62812665	     17.59632765	    -58.96229263	     13.34090752	     50.23014239	      5.04428648	    -21.98978010
      3.44000000	     40.23769034	      3.56050519	      8.59747151	   -178.58789507	    874.54973736	    -11.21533475	      0.24426022	     42.77133884	     45.00000000	     45.00000000	     21.37563550	    964.91711485	  -2814.25769902	     17.75803680	   -179.99999979	   1446.82293656	    -45.34573416	     21.89761507	      7.36865692	     12.95893001	    -45.00000000	    -39.24382569	     45.00000000	    -43.99964243	  -3143.58492800	  -3163.31790219	     17.85536524	    -57.94814140	     13.25554007	     50.29841310	      5.00338486	    -22.00134308
      3.45000000	     40.32615174	      3.63403699	      8.63069974	   -176.83680853	    877.12510954	    -11.13255066	      0.61787013	     42.79539777	     45.00000000	     45.00000000	     20.96391196	    965.06756624	  -2814.41602356	     18.26568613	   -179.99999979	   1446.56811840	    -45.09809197	     21.98994520	      7.26645383	     12.98530800	    -45.00000000	    -39.74116963	     45.00000000	    -43.60333202	  -3143.38137263	  -3163.28965988	     17.88317394	    -57.85579707	     13.38296531	     50.28948659	      4.93367946	    -22.01521739
      3.46000000	     40.25754566	      3.14101793	      7.85612545	   -174.94814994	    879.70625503	    -11.04148389	     -0.15821444	     42.43018918	     45.00000000	     45.00000000	     23.60104041	    964.94397049	  -2813.76915847	     18.14339375	   -179.99999979	   1446.71005162	    -44.71207988	     22.08058894	      7.40957546	     13.07650400	    -45.00000000	    -40.25403805	     45.00000000	    -41.75268343	  -3143.17554078	  -3163.12861477	     17.94739435	    -57.25295287	     13.37323461	     50.20875245	      4.88878389	    -22.01838357
      3.47000000	     40.19365541	      2.72154221	      7.03679334	   -172.91687352	    882.25550734	    -10.94379780	     -0.90200828	     42.20134263	     45.00000000	     45.00000000	     25.62772734	    964.67030539	  -2813.44124518	     18.25053572	   -179.99999979	   1446.72783957	    -44.00015656	     22.34230454	      7.28372099	     13.24811159	    -45.00000000	    -40.96247799	     45.00000000	    -39.94293000	  -3143.02884289	  -3162.93625333	     18.01094672	    -56.91319536	     13.39683611	     50.02662825	      4.94919718	    -22.15105034
      3.48000000	     40.13802938	      2.48588830	      6.54893650	   -170.74188252	    884.72416994	    -10.84575537	     -1.22819394	     41.97747535	     45.00000000	     45.00000000	     27.16786647	    964.58850564	  -2813.14826353	     18.36078662	   -179.99999979	   1446.72884865	    -43.53491638	     22.45625165	      7.29422833	     13.30495528	    -45.00000000	    -41.53660484	     45.00000000	    -38.53453970	  -3142.86059771	  -3162.78023173	     18.07368496	    -56.60710364	     13.36844767	     49.71998309	      4.93303962	    -22.14715866
      3.49000000	     40.04930942	      2.27388799	      6.00041223	   -168.42602081	    887.07910899	    -10.74171171	     -1.54349681	     41.75527251	     45.00000000	     45.00000000	     28.81101924	    964.49357053	  -2812.82682849	     18.39198705	   -179.99999979	   1446.67976162	    -43.44332925	     22.54799252	      7.35548134	     13.32305228	    -45.00000000	    -42.18085633	     45.00000000	    -37.11476157	  -3142.71478288	  -3162.58134943	     18.14085358	    -56.21467837	     13.36196873	     49.27745824	      4.93885707	    -22.16412771
